<?xml version="1.0" standalone="no"?>
<svg width="567.429" height="407.891" viewBox="0 0 567.429 407.891" xmlns="http://www.w3.org/2000/svg" shape-rendering="crispEdges">
<title>
/home/llr/cms/wind/cmssw/CMSSW_9_4_2/src/ZZAnalysis/BenchmarkerPlotsOptMor18150fb/Mor18_punzi.svg
</title>
<desc>
Creator: ROOT Version 6.10/09
CreationDate: Thu Apr  5 12:21:50 2018</desc>
<defs>
</defs>
<rect x="0.5" y="0" width="566.929" height="407.391" fill="white"/>
<rect x="0.5" y="0" width="538.583" height="407.391" fill="white" fill-opacity="0.00" stroke-opacity="0.00"/>
<rect x="135.146" y="40.7391" width="387.78" height="325.913" fill="white" fill-opacity="0.00" stroke-opacity="0.00"/>
<rect x="135.146" y="40.7391" width="387.78" height="325.913" fill="none" stroke="black"/>
<rect x="135.146" y="40.7391" width="387.78" height="325.913" fill="white" fill-opacity="0.00" stroke-opacity="0.00"/>
<rect x="135.146" y="40.7391" width="387.78" height="325.913" fill="none" stroke="black"/>
<rect x="135.146" y="325.913" width="0" height="40.7391" fill="black"/>
<rect x="135.146" y="285.174" width="0" height="40.7391" fill="black"/>
<rect x="135.146" y="244.435" width="0" height="40.7391" fill="black"/>
<rect x="135.146" y="203.696" width="0" height="40.7391" fill="black"/>
<rect x="135.146" y="162.957" width="0" height="40.7391" fill="black"/>
<rect x="135.146" y="122.217" width="0" height="40.7391" fill="black"/>
<rect x="135.146" y="81.4783" width="0" height="40.7391" fill="black"/>
<rect x="135.146" y="40.7391" width="0" height="40.7391" fill="black"/>
<path d="M135.146,366.652h 387.78" fill="none" stroke="black"/>
<path d="M135.146,363.719v 2.93322" fill="none" stroke="black"/>
<path d="M169.119,365.186v 1.46661" fill="none" stroke="black"/>
<path d="M203.093,363.719v 2.93322" fill="none" stroke="black"/>
<path d="M237.066,365.186v 1.46661" fill="none" stroke="black"/>
<path d="M271.039,363.719v 2.93322" fill="none" stroke="black"/>
<path d="M305.013,365.186v 1.46661" fill="none" stroke="black"/>
<path d="M338.986,363.719v 2.93322" fill="none" stroke="black"/>
<path d="M372.96,365.186v 1.46661" fill="none" stroke="black"/>
<path d="M406.933,363.719v 2.93322" fill="none" stroke="black"/>
<path d="M440.907,365.186v 1.46661" fill="none" stroke="black"/>
<path d="M474.88,363.719v 2.93322" fill="none" stroke="black"/>
<path d="M474.88,363.719v 2.93322" fill="none" stroke="black"/>
<path d="M508.854,365.186v 1.46661" fill="none" stroke="black"/>
<text xml:space="preserve" x="131.549" y="379.615" fill="black" font-size="13.5814" font-family="Helvetica">0</text>
<text xml:space="preserve" x="189.239" y="379.615" fill="black" font-size="13.5814" font-family="Helvetica">0.02</text>
<text xml:space="preserve" x="256.9" y="379.615" fill="black" font-size="13.5814" font-family="Helvetica">0.04</text>
<text xml:space="preserve" x="325.273" y="379.615" fill="black" font-size="13.5814" font-family="Helvetica">0.06</text>
<text xml:space="preserve" x="392.935" y="379.615" fill="black" font-size="13.5814" font-family="Helvetica">0.08</text>
<text xml:space="preserve" x="466.294" y="379.615" fill="black" font-size="13.5814" font-family="Helvetica">0.1</text>
<text xml:space="preserve" x="452.049" y="391.722" fill="black" font-size="13.5814" font-family="Helvetica">Punzi purity</text>
<path d="M135.146,40.7391h 387.78" fill="none" stroke="black"/>
<path d="M135.146,43.6723v -2.93322" fill="none" stroke="black"/>
<path d="M169.119,42.2057v -1.46661" fill="none" stroke="black"/>
<path d="M203.093,43.6723v -2.93322" fill="none" stroke="black"/>
<path d="M237.066,42.2057v -1.46661" fill="none" stroke="black"/>
<path d="M271.039,43.6723v -2.93322" fill="none" stroke="black"/>
<path d="M305.013,42.2057v -1.46661" fill="none" stroke="black"/>
<path d="M338.986,43.6723v -2.93322" fill="none" stroke="black"/>
<path d="M372.96,42.2057v -1.46661" fill="none" stroke="black"/>
<path d="M406.933,43.6723v -2.93322" fill="none" stroke="black"/>
<path d="M440.907,42.2057v -1.46661" fill="none" stroke="black"/>
<path d="M474.88,43.6723v -2.93322" fill="none" stroke="black"/>
<path d="M474.88,43.6723v -2.93322" fill="none" stroke="black"/>
<path d="M508.854,42.2057v -1.46661" fill="none" stroke="black"/>
<path d="M135.146,366.652v -325.913" fill="none" stroke="black"/>
<path d="M139.454,366.652h -4.30866" fill="none" stroke="black"/>
<path d="M139.454,325.913h -4.30866" fill="none" stroke="black"/>
<path d="M139.454,285.174h -4.30866" fill="none" stroke="black"/>
<path d="M139.454,244.435h -4.30866" fill="none" stroke="black"/>
<path d="M139.454,203.696h -4.30866" fill="none" stroke="black"/>
<path d="M139.454,162.957h -4.30866" fill="none" stroke="black"/>
<path d="M139.454,122.217h -4.30866" fill="none" stroke="black"/>
<path d="M139.454,81.4783h -4.30866" fill="none" stroke="black"/>
<path d="M139.454,40.7391h -4.30866" fill="none" stroke="black"/>
<path d="M522.925,366.652v -325.913" fill="none" stroke="black"/>
<path d="M518.617,366.652h 4.30866" fill="none" stroke="black"/>
<path d="M518.617,325.913h 4.30866" fill="none" stroke="black"/>
<path d="M518.617,285.174h 4.30866" fill="none" stroke="black"/>
<path d="M518.617,244.435h 4.30866" fill="none" stroke="black"/>
<path d="M518.617,203.696h 4.30866" fill="none" stroke="black"/>
<path d="M518.617,162.957h 4.30866" fill="none" stroke="black"/>
<path d="M518.617,122.217h 4.30866" fill="none" stroke="black"/>
<path d="M518.617,81.4783h 4.30866" fill="none" stroke="black"/>
<path d="M518.617,40.7391h 4.30866" fill="none" stroke="black"/>
<rect x="135.146" y="332.024" width="35.6777" height="28.5174" fill="black"/>
<rect x="135.146" y="291.285" width="21.5188" height="28.5174" fill="black"/>
<rect x="135.146" y="250.546" width="57.8568" height="28.5174" fill="black"/>
<rect x="135.146" y="209.807" width="151.895" height="28.5174" fill="black"/>
<rect x="135.146" y="169.067" width="54.6059" height="28.5174" fill="black"/>
<rect x="135.146" y="128.328" width="387.78" height="28.5174" fill="black"/>
<rect x="135.146" y="87.5891" width="269.211" height="28.5174" fill="black"/>
<rect x="135.146" y="46.85" width="126.251" height="28.5174" fill="black"/>
<path d="M135.146,366.652h 387.78" fill="none" stroke="black"/>
<path d="M135.146,363.719v 2.93322" fill="none" stroke="black"/>
<path d="M169.119,365.186v 1.46661" fill="none" stroke="black"/>
<path d="M203.093,363.719v 2.93322" fill="none" stroke="black"/>
<path d="M237.066,365.186v 1.46661" fill="none" stroke="black"/>
<path d="M271.039,363.719v 2.93322" fill="none" stroke="black"/>
<path d="M305.013,365.186v 1.46661" fill="none" stroke="black"/>
<path d="M338.986,363.719v 2.93322" fill="none" stroke="black"/>
<path d="M372.96,365.186v 1.46661" fill="none" stroke="black"/>
<path d="M406.933,363.719v 2.93322" fill="none" stroke="black"/>
<path d="M440.907,365.186v 1.46661" fill="none" stroke="black"/>
<path d="M474.88,363.719v 2.93322" fill="none" stroke="black"/>
<path d="M474.88,363.719v 2.93322" fill="none" stroke="black"/>
<path d="M508.854,365.186v 1.46661" fill="none" stroke="black"/>
<path d="M135.146,40.7391h 387.78" fill="none" stroke="black"/>
<path d="M135.146,43.6723v -2.93322" fill="none" stroke="black"/>
<path d="M169.119,42.2057v -1.46661" fill="none" stroke="black"/>
<path d="M203.093,43.6723v -2.93322" fill="none" stroke="black"/>
<path d="M237.066,42.2057v -1.46661" fill="none" stroke="black"/>
<path d="M271.039,43.6723v -2.93322" fill="none" stroke="black"/>
<path d="M305.013,42.2057v -1.46661" fill="none" stroke="black"/>
<path d="M338.986,43.6723v -2.93322" fill="none" stroke="black"/>
<path d="M372.96,42.2057v -1.46661" fill="none" stroke="black"/>
<path d="M406.933,43.6723v -2.93322" fill="none" stroke="black"/>
<path d="M440.907,42.2057v -1.46661" fill="none" stroke="black"/>
<path d="M474.88,43.6723v -2.93322" fill="none" stroke="black"/>
<path d="M474.88,43.6723v -2.93322" fill="none" stroke="black"/>
<path d="M508.854,42.2057v -1.46661" fill="none" stroke="black"/>
<path d="M135.146,366.652v -325.913" fill="none" stroke="black"/>
<path d="M139.454,366.652h -4.30866" fill="none" stroke="black"/>
<path d="M139.454,325.913h -4.30866" fill="none" stroke="black"/>
<path d="M139.454,285.174h -4.30866" fill="none" stroke="black"/>
<path d="M139.454,244.435h -4.30866" fill="none" stroke="black"/>
<path d="M139.454,203.696h -4.30866" fill="none" stroke="black"/>
<path d="M139.454,162.957h -4.30866" fill="none" stroke="black"/>
<path d="M139.454,122.217h -4.30866" fill="none" stroke="black"/>
<path d="M139.454,81.4783h -4.30866" fill="none" stroke="black"/>
<path d="M139.454,40.7391h -4.30866" fill="none" stroke="black"/>
<path d="M522.925,366.652v -325.913" fill="none" stroke="black"/>
<path d="M518.617,366.652h 4.30866" fill="none" stroke="black"/>
<path d="M518.617,325.913h 4.30866" fill="none" stroke="black"/>
<path d="M518.617,285.174h 4.30866" fill="none" stroke="black"/>
<path d="M518.617,244.435h 4.30866" fill="none" stroke="black"/>
<path d="M518.617,203.696h 4.30866" fill="none" stroke="black"/>
<path d="M518.617,162.957h 4.30866" fill="none" stroke="black"/>
<path d="M518.617,122.217h 4.30866" fill="none" stroke="black"/>
<path d="M518.617,81.4783h 4.30866" fill="none" stroke="black"/>
<path d="M518.617,40.7391h 4.30866" fill="none" stroke="black"/>
<text xml:space="preserve" x="36.1111" y="348.989" fill="black" font-size="9.84384" font-family="Helvetica" font-weight="bold">Untagged</text>
<text xml:space="preserve" x="38.2478" y="314.09" fill="black" font-size="9.84384" font-family="Helvetica" font-weight="bold"> tagged</text>
<text xml:space="preserve" x="38.2478" y="302.695" fill="black" font-size="9.84384" font-family="Helvetica" font-weight="bold">VBF-1jet</text>
<text xml:space="preserve" x="38.2478" y="272.781" fill="black" font-size="9.84384" font-family="Helvetica" font-weight="bold"> tagged</text>
<text xml:space="preserve" x="38.2478" y="261.386" fill="black" font-size="9.84384" font-family="Helvetica" font-weight="bold">VBF-2jet</text>
<text xml:space="preserve" x="31.8378" y="232.185" fill="black" font-size="9.84384" font-family="Helvetica" font-weight="bold">    tagged</text>
<text xml:space="preserve" x="31.8378" y="220.789" fill="black" font-size="9.84384" font-family="Helvetica" font-weight="bold">VH-leptonic</text>
<text xml:space="preserve" x="29.7011" y="190.876" fill="black" font-size="9.84384" font-family="Helvetica" font-weight="bold">     tagged</text>
<text xml:space="preserve" x="29.7011" y="180.905" fill="black" font-size="9.84384" font-family="Helvetica" font-weight="bold">VH-hadronic</text>
<text xml:space="preserve" x="31.8378" y="150.991" fill="black" font-size="9.84384" font-family="Helvetica" font-weight="bold">   tagged</text>
<text xml:space="preserve" x="31.8378" y="139.596" fill="black" font-size="9.84384" font-family="Helvetica" font-weight="bold">ttH leptonic</text>
<text xml:space="preserve" x="29.7011" y="109.682" fill="black" font-size="9.84384" font-family="Helvetica" font-weight="bold">   tagged</text>
<text xml:space="preserve" x="29.7011" y="99.7112" fill="black" font-size="9.84384" font-family="Helvetica" font-weight="bold">ttH hadronic</text>
<text xml:space="preserve" x="38.96" y="71.2223" fill="black" font-size="9.84384" font-family="Helvetica" font-weight="bold"> tagged</text>
<text xml:space="preserve" x="61.0389" y="53.4167" fill="black" font-size="6.72923" font-family="Helvetica" font-weight="bold">miss</text>
<text xml:space="preserve" x="61.0389" y="61.2511" fill="black" font-size="6.72923" font-family="Helvetica" font-weight="bold">T</text>
<text xml:space="preserve" x="38.96" y="58.4022" fill="black" font-size="9.84384" font-family="Helvetica" font-weight="bold">VH-E</text>
<text xml:space="preserve" x="486.236" y="34.1867" fill="black" font-size="9.84384" font-family="Helvetica" font-weight="bold"> (13TeV)</text>
<text xml:space="preserve" x="481.25" y="29.9133" fill="black" font-size="6.72923" font-family="Helvetica" font-weight="bold">-1</text>
<text xml:space="preserve" x="441.366" y="34.1867" fill="black" font-size="9.84384" font-family="Helvetica" font-weight="bold">150.00 fb</text>
<rect x="539.083" y="0" width="28.3465" height="407.391" fill="white" fill-opacity="0.00" stroke-opacity="0.00"/></svg>
